<svg width="45" height="45" viewBox="0 0 45 45" fill="none" xmlns="http://www.w3.org/2000/svg">
<path fill-rule="evenodd" clip-rule="evenodd" d="M7.42378 1.2141C5.87275 -0.358985 3.35802 -0.358985 1.80698 1.2141C0.255948 2.78718 0.255948 5.33764 1.80698 6.91072L16.4152 21.7265L1.19747 37.158C-0.353694 38.731 -0.353693 41.2812 1.19747 42.8542C2.74864 44.4271 5.26357 44.4271 6.81474 42.8542L22.032 27.4232L37.2498 42.8573C38.8009 44.4304 41.3156 44.4304 42.8666 42.8573C44.4177 41.2842 44.4177 38.7337 42.8666 37.1607L27.6492 21.727L42.2605 6.91049C43.8117 5.33754 43.8117 2.78728 42.2605 1.21432C40.7093 -0.358629 38.1944 -0.358629 36.6432 1.21432L22.0324 16.0304L7.42378 1.2141Z" fill="black"/>
</svg>
